<?xml version="1.0"?>
<svg xmlns="http://www.w3.org/2000/svg" width="236" height="40" viewBox="0 0 236 40" fill="none">
<path d="M55.1768 12.5168L40.9381 26.8194H55.1768V12.5168ZM27.5255 22.5919L31.3015 18.7989L18.7541 6.19518C17.0156 4.44883 14.7421 3.57961 12.4608 3.57961C10.1795 3.57961 7.906 4.44883 6.16746 6.19518C5.31 7.0565 4.66494 8.04425 4.23227 9.08732C3.78387 10.1778 3.55575 11.3473 3.55575 12.5168V12.8487C5.57748 11.0312 8.12627 10.1146 10.6751 10.1146C13.4048 10.1146 16.1424 11.1655 18.2271 13.2596L27.5176 22.5919H27.5255ZM2.71401 36.61C0.904676 34.7926 0.00786667 32.422 0 30.0435V12.5168C0 10.8969 0.31466 9.26906 0.95186 7.72817C1.56546 6.24259 2.46228 4.85974 3.65014 3.66654C6.08094 1.22481 9.2748 0 12.4608 0C15.6468 0 18.8407 1.22481 21.2715 3.66654L33.8188 16.2702L46.3661 3.66654C48.7969 1.22481 51.9908 0 55.1768 0C58.3628 0 61.5567 1.22481 63.9875 3.66654C65.1753 4.85974 66.0721 6.24259 66.6857 7.72817C67.3229 9.26906 67.6376 10.8969 67.6376 12.5168V30.3912C67.6376 32.8566 66.6385 35.0928 65.0337 36.7128C63.4211 38.3327 61.1948 39.3283 58.7404 39.3283H27.7457C26.7624 39.3283 25.9679 38.5302 25.9679 37.5425C25.9679 37.0446 26.1724 36.5942 26.4949 36.2702L52.6595 9.98815C53.3517 9.29277 54.2643 8.93718 55.1768 8.93718C56.0893 8.93718 57.0019 9.28487 57.6941 9.98815C58.0245 10.32 58.2841 10.723 58.4651 11.1576C58.646 11.6002 58.7404 12.0664 58.7404 12.5168V28.6053C58.7404 29.593 57.9459 30.3912 56.9625 30.3912H37.3824L32.0409 35.7566H58.7404C60.2115 35.7566 61.5488 35.1561 62.5164 34.1841C63.484 33.2122 64.0819 31.8688 64.0819 30.3912V12.5168C64.0819 11.3394 63.8537 10.1699 63.4053 9.08732C62.9727 8.04425 62.3355 7.0644 61.4701 6.19518C59.7316 4.44883 57.4581 3.57961 55.1768 3.57961C52.8955 3.57961 50.622 4.44883 48.8835 6.19518L16.4256 38.7989C16.1031 39.1308 15.6547 39.3362 15.1591 39.3362H9.25908C8.06335 39.3362 6.85975 39.0992 5.71908 38.625C4.61775 38.1667 3.59508 37.4951 2.71401 36.61ZM15.8041 23.4611L21.2321 28.9135L25.0081 25.1205L15.7176 15.7882C14.3252 14.3896 12.508 13.6942 10.6829 13.6942C8.85788 13.6942 7.04066 14.3896 5.64826 15.7882C4.95599 16.4836 4.44466 17.2659 4.09853 18.0956C3.73666 18.9648 3.5636 19.8973 3.5636 20.8455V22.7104C5.23133 21.3987 7.24521 20.7428 9.25908 20.7428C11.6269 20.7428 13.9948 21.6515 15.8041 23.469V23.4611ZM5.23133 25.9897C4.12213 27.1039 3.5636 28.5737 3.5636 30.0356C3.5636 31.4974 4.12213 32.9672 5.23133 34.0814C5.78199 34.6345 6.41135 35.0533 7.07215 35.322C7.76442 35.6065 8.51175 35.7566 9.25908 35.7566H14.4196L18.7148 31.4421L13.2868 25.9897C12.1776 24.8755 10.7144 24.3145 9.25908 24.3145C7.80375 24.3145 6.34053 24.8755 5.23133 25.9897Z" fill="#7DBA00"/>
<path d="M214.233 32.1612C214.949 32.1612 215.35 32.6906 215.35 33.386V35.2667C215.35 35.9621 214.941 36.4757 214.233 36.4757C213.525 36.4757 213.116 35.9621 213.116 35.2667V33.386C213.116 32.6906 213.525 32.1612 214.233 32.1612ZM214.233 31.1577C212.864 31.1577 211.92 32.0427 211.92 33.465V35.164C211.92 36.5863 212.864 37.4872 214.233 37.4872C215.602 37.4872 216.546 36.5863 216.546 35.164V33.465C216.546 32.0427 215.602 31.1577 214.233 31.1577ZM209.647 37.179C209.647 37.2975 209.717 37.3686 209.828 37.3686H210.654C210.764 37.3686 210.835 37.2975 210.835 37.179V31.4579C210.835 31.3473 210.764 31.2762 210.654 31.2762H209.828C209.717 31.2762 209.647 31.3473 209.647 31.4579V37.179ZM210.646 30.3437C210.764 30.3437 210.835 30.2726 210.835 30.1541V29.2059C210.835 29.0952 210.764 29.0241 210.646 29.0241H209.82C209.71 29.0241 209.631 29.0952 209.631 29.2059V30.1541C209.631 30.2726 209.717 30.3437 209.82 30.3437H210.646ZM204.809 33.5915V35.0533C204.809 36.4757 205.737 37.3765 207.106 37.3765H208.561C208.671 37.3765 208.742 37.3054 208.742 37.1869V36.5389C208.742 36.4283 208.671 36.3572 208.561 36.3572H207.177C206.429 36.3572 205.981 35.8277 205.981 35.1324V33.5046C205.981 32.8092 206.413 32.2955 207.177 32.2955H208.467C208.585 32.2955 208.655 32.2244 208.655 32.1059V31.4579C208.655 31.3473 208.585 31.2762 208.467 31.2762H207.098C205.737 31.2762 204.809 32.1612 204.809 33.5836V33.5915ZM201.631 32.1691C202.346 32.1691 202.748 32.6985 202.748 33.3939V35.2746C202.748 35.97 202.339 36.4836 201.631 36.4836C200.923 36.4836 200.513 35.97 200.513 35.2746V33.3939C200.513 32.6985 200.915 32.1691 201.631 32.1691ZM201.631 31.1656C200.262 31.1656 199.318 32.0506 199.318 33.4729V35.1719C199.318 36.5942 200.262 37.4951 201.631 37.4951C202.999 37.4951 203.943 36.5942 203.943 35.1719V33.4729C203.943 32.0506 202.999 31.1656 201.631 31.1656ZM202.307 28.795C202.189 28.795 202.095 28.8582 202.032 28.9609L201.284 30.2568C201.221 30.3516 201.284 30.4228 201.379 30.4228H201.882C202.016 30.4228 202.095 30.3754 202.181 30.2647L203.196 28.9451C203.259 28.8582 203.22 28.787 203.125 28.787H202.315L202.307 28.795ZM194.842 35.0692V33.3702C194.842 32.7143 195.211 32.2086 195.927 32.2086C196.643 32.2086 197.06 32.7223 197.06 33.4176V35.0217C197.06 35.7013 196.627 36.2307 195.927 36.2307C195.227 36.2307 194.842 35.725 194.842 35.0692ZM198.248 31.4658C198.248 31.3552 198.177 31.2841 198.059 31.2841H197.414C197.296 31.2841 197.209 31.3473 197.202 31.4658L197.154 31.8846C196.832 31.4421 196.321 31.1656 195.652 31.1656C194.362 31.1656 193.662 32.0664 193.662 33.3781V35.0454C193.662 36.373 194.362 37.2738 195.652 37.2738C196.258 37.2738 196.737 37.0447 197.06 36.6654V37.3844C197.06 38.0877 196.682 38.6093 195.927 38.6093H194.33C194.212 38.6093 194.141 38.6804 194.141 38.791V39.4469C194.141 39.5575 194.212 39.6286 194.33 39.6286H195.943C197.312 39.6286 198.256 38.7673 198.256 37.416V31.4737L198.248 31.4658ZM190.609 32.1217C191.309 32.1217 191.719 32.6353 191.719 33.3465V33.8285H189.492V33.3465C189.492 32.6432 189.901 32.1217 190.609 32.1217ZM189.492 34.674H192.663C192.773 34.674 192.851 34.6029 192.851 34.4844V33.4808C192.851 32.0585 191.931 31.1735 190.609 31.1735C189.288 31.1735 188.32 32.0585 188.32 33.4808V35.1798C188.32 36.531 189.248 37.3844 190.633 37.3844H192.324C192.434 37.3844 192.505 37.3133 192.505 37.1948V36.5468C192.505 36.4362 192.434 36.3651 192.324 36.3651H190.68C189.917 36.3651 189.484 35.8831 189.484 35.2667V34.682L189.492 34.674ZM183.891 33.4176C183.891 32.7223 184.324 32.2086 185.024 32.2086C185.724 32.2086 186.11 32.7143 186.11 33.3702V37.1869C186.11 37.3054 186.18 37.3765 186.291 37.3765H187.117C187.227 37.3765 187.297 37.3054 187.297 37.1869V33.3228C187.297 32.0427 186.629 31.1656 185.331 31.1656C184.662 31.1656 184.135 31.4421 183.805 31.9083L183.757 31.4658C183.742 31.3473 183.663 31.2841 183.545 31.2841H182.9C182.782 31.2841 182.711 31.3552 182.711 31.4658V37.1869C182.711 37.3054 182.782 37.3765 182.9 37.3765H183.71C183.82 37.3765 183.899 37.3054 183.899 37.1869V33.4176H183.891ZM179.321 32.1691C180.037 32.1691 180.438 32.6985 180.438 33.3939V35.2746C180.438 35.97 180.029 36.4836 179.321 36.4836C178.613 36.4836 178.204 35.97 178.204 35.2746V33.3939C178.204 32.6985 178.613 32.1691 179.321 32.1691ZM179.321 31.1656C177.952 31.1656 177.008 32.0506 177.008 33.4729V35.1719C177.008 36.5942 177.952 37.4951 179.321 37.4951C180.689 37.4951 181.633 36.5942 181.633 35.1719V33.4729C181.633 32.0506 180.689 31.1656 179.321 31.1656ZM176.119 32.3983H176.473C176.591 32.3983 176.662 32.3272 176.662 32.2086V31.4658C176.662 31.3552 176.591 31.2841 176.473 31.2841H176.221C175.615 31.2841 175.128 31.5686 174.782 32.098L174.719 31.4658C174.711 31.3473 174.624 31.2841 174.506 31.2841H173.861C173.743 31.2841 173.672 31.3552 173.672 31.4658V37.1869C173.672 37.3054 173.743 37.3765 173.861 37.3765H174.671C174.782 37.3765 174.86 37.3054 174.86 37.1869V33.631C174.86 32.825 175.411 32.3983 176.111 32.3983H176.119ZM169 35.0692V33.3702C169 32.7143 169.369 32.2086 170.085 32.2086C170.801 32.2086 171.218 32.7223 171.218 33.4176V35.0217C171.218 35.7013 170.785 36.2307 170.085 36.2307C169.385 36.2307 169 35.725 169 35.0692ZM172.406 31.4658C172.406 31.3552 172.335 31.2841 172.217 31.2841H171.572C171.454 31.2841 171.367 31.3473 171.36 31.4658L171.312 31.8846C170.99 31.4421 170.479 31.1656 169.81 31.1656C168.52 31.1656 167.82 32.0664 167.82 33.3781V35.0454C167.82 36.373 168.52 37.2738 169.81 37.2738C170.416 37.2738 170.895 37.0447 171.218 36.6654V37.3844C171.218 38.0877 170.833 38.6093 170.085 38.6093H168.488C168.37 38.6093 168.299 38.6804 168.299 38.791V39.4469C168.299 39.5575 168.37 39.6286 168.488 39.6286H170.101C171.47 39.6286 172.414 38.7673 172.414 37.416V31.4737L172.406 31.4658ZM163.218 34.7373L164.264 31.0865L165.349 34.7373H163.218ZM167.19 37.3844C167.308 37.3844 167.355 37.3133 167.324 37.2027L165.011 29.68C164.972 29.5693 164.901 29.514 164.775 29.514H163.855C163.737 29.514 163.65 29.5773 163.619 29.68L161.322 37.2027C161.282 37.3133 161.345 37.3844 161.455 37.3844H162.289C162.423 37.3844 162.494 37.3212 162.525 37.2027L162.934 35.804H165.641L166.073 37.2027C166.113 37.3212 166.183 37.3844 166.309 37.3844H167.206H167.19ZM151.709 33.3939C151.709 32.7223 152.141 32.2086 152.818 32.2086C153.494 32.2086 153.856 32.7143 153.856 33.3702V37.1869C153.856 37.3054 153.943 37.3765 154.045 37.3765H154.855C154.973 37.3765 155.044 37.3054 155.044 37.1869V33.3702C155.044 32.7143 155.485 32.2086 156.153 32.2086C156.822 32.2086 157.2 32.7143 157.2 33.3702V37.1869C157.2 37.3054 157.27 37.3765 157.381 37.3765H158.207C158.317 37.3765 158.387 37.3054 158.387 37.1869V33.3228C158.387 32.0427 157.719 31.1656 156.46 31.1656C155.689 31.1656 155.099 31.5607 154.816 32.1454C154.517 31.5211 153.943 31.1656 153.125 31.1656C152.456 31.1656 151.945 31.4421 151.622 31.9083L151.575 31.4658C151.559 31.3315 151.465 31.2841 151.363 31.2841H150.717C150.599 31.2841 150.529 31.3552 150.529 31.4658V37.1869C150.529 37.3054 150.599 37.3765 150.717 37.3765H151.528C151.638 37.3765 151.717 37.3054 151.717 37.1869V33.3939H151.709ZM147.288 32.1217C147.988 32.1217 148.397 32.6353 148.397 33.3465V33.8285H146.171V33.3465C146.171 32.6432 146.58 32.1217 147.288 32.1217ZM146.171 34.674H149.341C149.451 34.674 149.53 34.6029 149.53 34.4844V33.4808C149.53 32.0585 148.609 31.1735 147.288 31.1735C145.966 31.1735 144.998 32.0585 144.998 33.4808V35.1798C144.998 36.531 145.927 37.3844 147.311 37.3844H149.003C149.113 37.3844 149.183 37.3133 149.183 37.1948V36.5468C149.183 36.4362 149.113 36.3651 149.003 36.3651H147.358C146.595 36.3651 146.163 35.8831 146.163 35.2667V34.682L146.171 34.674ZM139.704 37.3765C141.097 37.3765 141.883 36.6338 141.883 35.5828C141.883 34.5318 141.136 34.1209 140.247 33.8206L139.35 33.5204C138.87 33.3623 138.721 33.1648 138.721 32.8645C138.721 32.4694 139.067 32.2797 139.578 32.2797H141.34C141.451 32.2797 141.521 32.2086 141.521 32.098V31.4658C141.521 31.3552 141.451 31.2841 141.34 31.2841H139.625C138.351 31.2841 137.596 32.0506 137.596 32.9356C137.596 33.8838 138.249 34.358 138.98 34.5871L140.003 34.9111C140.491 35.0691 140.703 35.2667 140.703 35.6539C140.703 36.0964 140.428 36.373 139.704 36.373H137.824C137.714 36.373 137.643 36.4599 137.643 36.5626V37.1869C137.643 37.3054 137.714 37.3765 137.824 37.3765H139.696H139.704ZM134.669 32.1217C135.37 32.1217 135.779 32.6353 135.779 33.3465V33.8285H133.552V33.3465C133.552 32.6432 133.954 32.1217 134.669 32.1217ZM133.552 34.674H136.723C136.833 34.674 136.911 34.6029 136.911 34.4844V33.4808C136.911 32.0585 135.991 31.1735 134.669 31.1735C133.348 31.1735 132.38 32.0585 132.38 33.4808V35.1798C132.38 36.531 133.309 37.3844 134.693 37.3844H136.384C136.495 37.3844 136.565 37.3133 136.565 37.1948V36.5468C136.565 36.4362 136.495 36.3651 136.384 36.3651H134.74C133.977 36.3651 133.545 35.8831 133.545 35.2667V34.682L133.552 34.674ZM129.21 32.1691C129.926 32.1691 130.327 32.6985 130.327 33.3939V35.2746C130.327 35.97 129.918 36.4836 129.21 36.4836C128.502 36.4836 128.093 35.97 128.093 35.2746V33.3939C128.093 32.6985 128.502 32.1691 129.21 32.1691ZM129.21 31.1656C127.841 31.1656 126.897 32.0506 126.897 33.4729V35.1719C126.897 36.5942 127.841 37.4951 129.21 37.4951C130.579 37.4951 131.523 36.5942 131.523 35.1719V33.4729C131.523 32.0506 130.579 31.1656 129.21 31.1656ZM130.06 29.5693C129.918 29.5693 129.729 29.4745 129.556 29.3876L129.068 29.1268C128.84 29.0083 128.628 28.9609 128.415 28.9609C127.786 28.9609 127.369 29.4271 127.369 30.0356V30.2015C127.369 30.3121 127.432 30.3596 127.534 30.3596H127.818C127.959 30.3596 128.022 30.32 128.069 30.1778C128.132 30.0198 128.187 29.7669 128.502 29.7669C128.644 29.7669 128.801 29.8538 128.919 29.9091L129.422 30.162C129.658 30.2805 129.902 30.3754 130.146 30.3754C130.72 30.3754 131.074 29.9882 131.074 29.2849V29.1189C131.074 29.0478 131.027 29.0004 130.941 29.0004H130.642C130.5 29.0004 130.437 29.0478 130.406 29.1821C130.359 29.3639 130.319 29.5614 130.06 29.5614V29.5693ZM122.327 33.5915V35.0533C122.327 36.2861 123.019 37.1237 124.105 37.3291L123.735 38.0324C123.688 38.1272 123.695 38.2616 123.758 38.3564L123.821 38.4433C123.884 38.5302 123.979 38.5539 124.097 38.5539H124.348C124.608 38.5539 124.789 38.6883 124.789 38.9095V38.9727C124.789 39.2019 124.632 39.3283 124.356 39.3283H123.656C123.546 39.3283 123.475 39.3995 123.475 39.518V39.8183C123.475 39.9289 123.546 40 123.656 40H124.403C125.072 40 125.521 39.6128 125.521 38.9727V38.8858C125.521 38.2853 125.151 37.9297 124.569 37.9297H124.506L124.805 37.3765H126.079C126.189 37.3765 126.26 37.3054 126.26 37.1869V36.5389C126.26 36.4283 126.189 36.3572 126.079 36.3572H124.695C123.947 36.3572 123.499 35.8277 123.499 35.1324V33.5046C123.499 32.8092 123.931 32.2955 124.695 32.2955H125.985C126.103 32.2955 126.173 32.2244 126.173 32.1059V31.4579C126.173 31.3473 126.103 31.2762 125.985 31.2762H124.616C123.255 31.2762 122.327 32.1612 122.327 33.5836V33.5915ZM118.637 37.4951C119.306 37.4951 119.833 37.2106 120.148 36.7681L120.211 37.1869C120.218 37.3054 120.305 37.3765 120.423 37.3765H121.068C121.186 37.3765 121.257 37.3054 121.257 37.1869V31.4658C121.257 31.3552 121.186 31.2841 121.068 31.2841H120.258C120.148 31.2841 120.069 31.3552 120.069 31.4658V35.2351C120.069 35.9305 119.636 36.4599 118.936 36.4599C118.236 36.4599 117.921 35.9937 117.921 35.3615V31.4737C117.921 31.3631 117.835 31.292 117.733 31.292H116.922C116.804 31.292 116.733 31.3631 116.733 31.4737V35.4168C116.733 36.6654 117.386 37.5109 118.637 37.5109V37.4951ZM114.295 37.1869C114.295 37.3054 114.366 37.3765 114.476 37.3765H115.302C115.412 37.3765 115.483 37.3054 115.483 37.1869V29.2138C115.483 29.1031 115.412 29.032 115.302 29.032H114.476C114.366 29.032 114.295 29.1031 114.295 29.2138V37.1869ZM110.889 32.1691C111.604 32.1691 112.006 32.6985 112.006 33.3939V35.2746C112.006 35.97 111.597 36.4836 110.889 36.4836C110.181 36.4836 109.771 35.97 109.771 35.2746V33.3939C109.771 32.6985 110.181 32.1691 110.889 32.1691ZM110.889 31.1656C109.52 31.1656 108.576 32.0506 108.576 33.4729V35.1719C108.576 36.5942 109.52 37.4951 110.889 37.4951C112.257 37.4951 113.201 36.5942 113.201 35.1719V33.4729C113.201 32.0506 112.257 31.1656 110.889 31.1656ZM107.876 35.0692C107.876 33.6784 106.9 33.2122 105.948 32.8803L104.784 32.4694C104.233 32.2797 103.95 31.9795 103.95 31.5369C103.95 31.0075 104.414 30.6282 105.225 30.6282H107.215C107.325 30.6282 107.404 30.5413 107.404 30.4386V29.6958C107.404 29.5852 107.317 29.514 107.215 29.514H105.225C103.722 29.514 102.77 30.4149 102.77 31.5765C102.77 32.6669 103.439 33.2754 104.454 33.6389L105.61 34.0498C106.263 34.2789 106.68 34.5555 106.68 35.1719C106.68 35.7882 106.2 36.2703 105.24 36.2703H102.951C102.841 36.2703 102.77 36.3572 102.77 36.4599V37.1869C102.77 37.3054 102.841 37.3765 102.951 37.3765H105.264C106.861 37.3765 107.883 36.4441 107.883 35.0692H107.876Z" fill="white"/>
<path fill-rule="evenodd" clip-rule="evenodd" d="M231.107 11.8056C231.107 10.723 230.234 9.838 229.148 9.838H226.702C225.624 9.838 224.743 10.7151 224.743 11.8056V17.7084C224.743 18.791 225.616 19.676 226.702 19.676H229.148C230.226 19.676 231.107 18.7989 231.107 17.7084V11.8056ZM219.85 10.8258C219.85 8.10746 222.045 5.9107 224.743 5.9107H231.107C233.813 5.9107 236 8.11536 236 10.8258V18.6962C236 21.4145 233.805 23.6112 231.107 23.6112H224.743C222.037 23.6112 219.85 21.4066 219.85 18.6962V10.8258ZM212.014 11.8056C212.014 10.723 212.888 9.838 213.973 9.838H217.403C217.946 9.838 218.379 9.39549 218.379 8.85815V6.89055C218.379 6.34531 217.938 5.9107 217.403 5.9107H212.022C209.316 5.9107 207.129 8.11536 207.129 10.8258V22.6235C207.129 23.1687 207.57 23.6033 208.105 23.6033H211.039C211.582 23.6033 212.014 23.1608 212.014 22.6235V11.8056ZM202.716 5.9028H194.393C191.687 5.9028 189.5 8.10746 189.5 10.8179V18.6804C189.5 21.3987 191.695 23.5954 194.393 23.5954H199.774C202.48 23.5954 204.667 21.3907 204.667 18.6804V13.7653C204.667 13.2201 204.227 12.7855 203.692 12.7855H198.067C197.524 12.7855 197.091 13.228 197.091 13.7653V15.7329C197.091 16.2781 197.532 16.7128 198.067 16.7128H199.782V17.6926C199.782 18.7752 198.909 19.6602 197.823 19.6602H196.352C195.274 19.6602 194.393 18.7831 194.393 17.6926V11.7898C194.393 10.7072 195.266 9.8222 196.352 9.8222H202.716C203.259 9.8222 203.692 9.37969 203.692 8.84235V6.87475C203.692 6.32951 203.251 5.8949 202.716 5.8949V5.9028ZM182.161 19.6681V16.7207H178.251C177.708 16.7207 177.275 17.1632 177.275 17.7005V18.6804C177.275 19.2256 177.716 19.6602 178.251 19.6602H182.161V19.6681ZM174.333 5.9028H182.161C184.867 5.9028 187.054 8.10746 187.054 10.8179V22.6156C187.054 23.1608 186.613 23.5954 186.078 23.5954H176.292C174.129 23.5954 172.374 21.8333 172.374 19.6602V16.7128C172.374 14.5397 174.129 12.7776 176.292 12.7776H182.161V11.7977C182.161 10.7151 181.287 9.8301 180.202 9.8301H174.325C173.782 9.8301 173.35 9.38759 173.35 8.85025V6.88265C173.35 6.33741 173.79 5.9028 174.325 5.9028H174.333ZM165.035 11.8056C165.035 10.723 164.162 9.838 163.076 9.838H160.629C159.552 9.838 158.671 10.7151 158.671 11.8056V17.7084C158.671 18.791 159.544 19.676 160.629 19.676H163.076C164.154 19.676 165.035 18.7989 165.035 17.7084V11.8056ZM153.778 10.8258C153.778 8.10746 155.972 5.9107 158.671 5.9107H165.035C167.741 5.9107 169.928 8.11536 169.928 10.8258V18.6962C169.928 21.4145 167.733 23.6112 165.035 23.6112H158.671C155.965 23.6112 153.778 21.4066 153.778 18.6962V10.8258ZM150.348 23.6112H143.008C140.302 23.6112 138.115 21.4066 138.115 18.6962V10.8337C138.115 8.11536 140.31 5.9186 143.008 5.9186H150.348C150.89 5.9186 151.323 6.36112 151.323 6.89845V8.86606C151.323 9.41129 150.883 9.8459 150.348 9.8459H144.967C143.889 9.8459 143.008 10.723 143.008 11.8135V17.7163C143.008 18.7989 143.881 19.6839 144.967 19.6839H150.348C150.89 19.6839 151.323 20.1264 151.323 20.6638V22.6314C151.323 23.1766 150.883 23.6112 150.348 23.6112ZM130.28 11.8135C130.28 10.7309 131.153 9.8459 132.239 9.8459H135.668C136.211 9.8459 136.644 9.40339 136.644 8.86606V6.89845C136.644 6.35321 136.203 5.9186 135.668 5.9186H130.288C127.582 5.9186 125.395 8.12327 125.395 10.8337V22.6314C125.395 23.1766 125.835 23.6112 126.37 23.6112H129.304C129.847 23.6112 130.28 23.1687 130.28 22.6314V11.8135ZM118.047 12.7934V11.8135C118.047 10.7309 117.174 9.8459 116.088 9.8459H115.113C114.035 9.8459 113.154 10.723 113.154 11.8135V12.7934H118.047ZM120.974 23.6112H113.146C110.44 23.6112 108.253 21.4066 108.253 18.6962V10.8337C108.253 8.11536 110.448 5.9186 113.146 5.9186H118.039C120.745 5.9186 122.932 8.12327 122.932 10.8337V15.7487C122.932 16.2939 122.492 16.7286 121.957 16.7286H113.146V17.7084C113.146 18.791 114.019 19.676 115.105 19.676H120.974C121.516 19.676 121.949 20.1185 121.949 20.6559V22.6235C121.949 23.1687 121.508 23.6033 120.974 23.6033V23.6112ZM83.2922 22.6314V6.89055C83.2922 6.34531 83.7328 5.9107 84.2677 5.9107H100.906C103.612 5.9107 105.799 8.11536 105.799 10.8258V22.6235C105.799 23.1687 105.358 23.6033 104.823 23.6033H101.889C101.346 23.6033 100.914 23.1608 100.914 22.6235V11.8056C100.914 10.723 100.04 9.838 98.9548 9.838H96.996V22.6235C96.996 23.1687 96.5554 23.6033 96.0205 23.6033H93.0862C92.5434 23.6033 92.1108 23.1608 92.1108 22.6235V9.838H88.1932V22.6235C88.1932 23.1687 87.7526 23.6033 87.2177 23.6033H84.2834C83.7406 23.6033 83.308 23.1608 83.308 22.6235L83.2922 22.6314Z" fill="white"/>
</svg>
